<svg xmlns="http://www.w3.org/2000/svg" xmlns:xlink="http://www.w3.org/1999/xlink" viewBox="0 0 61.94 61.94" id="linkedin">
  <defs>
    <linearGradient id="a" x1="36.39" x2="36.39" y1="43.31" y2="22.31" gradientUnits="userSpaceOnUse">
      <stop offset="0" stop-color="#b1e3fa"></stop>
      <stop offset=".13" stop-color="#c7ebfb"></stop>
      <stop offset=".32" stop-color="#e0f4fd"></stop>
      <stop offset=".52" stop-color="#f1fafe"></stop>
      <stop offset=".74" stop-color="#fcfeff"></stop>
      <stop offset=".99" stop-color="#fff"></stop>
    </linearGradient>
    <linearGradient xlink:href="#a" id="c" x1="19.29" x2="19.29" y1="43.31" y2="22.79"></linearGradient>
    <linearGradient xlink:href="#a" id="d" x1="19.31" x2="19.31" y1="20.07" y2="12.63"></linearGradient>
    <radialGradient id="b" cx="31.19" cy="-14.44" r="50.4" gradientUnits="userSpaceOnUse">
      <stop offset="0" stop-color="#4f97d1"></stop>
      <stop offset=".4" stop-color="#428ec9"></stop>
      <stop offset="1" stop-color="#267bb7"></stop>
    </radialGradient>
  </defs>
  <rect width="61.94" height="61.94" fill="url(#b)" rx="16.96"></rect>
  <path fill="url(#a)" d="M46.35,42c0-3.86,0-7.72-.06-11.58a12.47,12.47,0,0,0-.21-2,8.45,8.45,0,0,0-1-3.08,5.54,5.54,0,0,0-2.94-2.45,9.68,9.68,0,0,0-3.66-.53,7.21,7.21,0,0,0-3.37.89,6.27,6.27,0,0,0-2.3,2.16c-.05.08-.1.16-.14.24l-.06,0V23.11c0-.32,0-.32-.32-.32H26.73c-.3,0-.31,0-.31.31V43c0,.28,0,.28.28.28h5.82c.3,0,.3,0,.3-.31,0-3.6,0-7.19,0-10.79a6.21,6.21,0,0,1,.47-2.33A2.93,2.93,0,0,1,35,28.24,4.51,4.51,0,0,1,37.13,28a2.64,2.64,0,0,1,2.31,1.66A6,6,0,0,1,39.9,32c0,3.67,0,7.34,0,11,0,.2.05.27.26.27,2,0,3.95,0,5.92,0h.26Z"></path>
  <path fill="url(#c)" d="M22.19,22.79H16.38c-.28,0-.29,0-.29.29V43.29l.26,0c2,0,3.91,0,5.87,0,.22,0,.27-.06.27-.27V23.09C22.49,22.8,22.48,22.79,22.19,22.79Z"></path>
  <path fill="url(#d)" d="M19.33,12.63a3.71,3.71,0,0,0-3.74,3.69,3.72,3.72,0,1,0,3.74-3.69Z"></path>
</svg>
